<?xml version="1.0" encoding="UTF-8" standalone="no"?>
<svg width="160" height="160" xmlns="http://www.w3.org/2000/svg" viewBox="0 0 160 160">
    <path d="m141.875,20c-45.60087,44.65982 -69.01848,40.7999 -128.15625,45.34375l0,5.625l-8.71875,2.90625l0,12.25l8.71875,2.90625l0,6.6875c7.25059,0.82224 13.88388,1.32832 20.0625,1.71875c-9.31862,15.96011 -12.96732,29.8846 -9.65625,35.6875c0,0 31.86464,14.35229 30.25,1.5c-1.08624,-8.64642 1.87019,-23.57169 4.9375,-35.875c29.00855,1.68898 48.52722,6.05197 82.4375,41.125c3.25584,-16.68025 4.94737,-33.38225 5.34375,-50.0625l6.5,-1.46875c3.15773,-5.55194 2.54256,-11.10429 0,-16.65625l-6.625,-1.5c-0.58527,-16.73221 -2.36115,-33.45529 -5.09375,-50.1875z" id="path2818" fill="#000"/>
</svg>
