<?xml version="1.0" encoding="UTF-8" standalone="no"?>
<!-- Created with Inkscape (http://www.inkscape.org/) -->

<svg
   xmlns:dc="http://purl.org/dc/elements/1.1/"
   xmlns:cc="http://creativecommons.org/ns#"
   xmlns:rdf="http://www.w3.org/1999/02/22-rdf-syntax-ns#"
   xmlns:svg="http://www.w3.org/2000/svg"
   xmlns="http://www.w3.org/2000/svg"
   xmlns:sodipodi="http://sodipodi.sourceforge.net/DTD/sodipodi-0.dtd"
   xmlns:inkscape="http://www.inkscape.org/namespaces/inkscape"
   width="150.73755"
   height="119.9726"
   id="svg2"
   version="1.1"
   inkscape:version="0.47 r22583"
   sodipodi:docname="megaphone.svg">
   <metadata
     id="metadata7">
    <rdf:RDF>
      <cc:Work
         rdf:about="">
        <dc:format>image/svg+xml</dc:format>
        <dc:type
           rdf:resource="http://purl.org/dc/dcmitype/StillImage" />
        <dc:title></dc:title>
      </cc:Work>
    </rdf:RDF>
  </metadata>
  <g
     inkscape:label="Calque 1"
     inkscape:groupmode="layer"
     id="layer1"
     transform="translate(-0.90625,-1.65625)">
    <path
       style="fill:#ffffff;fill-opacity:1;stroke:none"
       d="M 137.78125,1.65625 C 92.18038,46.31607 68.76277,42.45615 9.625,47 l 0,5.625 -8.71875,2.90625 0,12.25 8.71875,2.90625 0,6.6875 c 7.25059,0.82223 13.88388,1.32832 20.0625,1.71875 -9.31862,15.96012 -12.96732,29.8846 -9.65625,35.6875 0,0 31.86464,14.35229 30.25,1.5 -1.08624,-8.64642 1.87019,-23.57168 4.9375,-35.875 29.00855,1.68898 48.52722,6.05197 82.4375,41.125 C 140.91209,104.851 142.60362,88.149 143,71.46875 L 149.5,70 c 3.15773,-5.55195 2.54255,-11.10429 0,-16.65625 l -6.625,-1.5 c -0.58527,-16.7322 -2.36115,-33.4553 -5.09375,-50.1875 z"
       id="path2818"
       inkscape:export-xdpi="358.23999"
       inkscape:export-ydpi="358.23999" />
  </g>
</svg>
